<svg width="566" height="61" viewBox="0 0 566 61" fill="none" xmlns="http://www.w3.org/2000/svg">
<path d="M559.877 60.3503H559.849H5.3696C3.65223 60.3503 2.02071 59.6989 1.04754 58.6018C0.0743655 57.5046 -0.125985 56.1161 0.475092 54.8818L21.0262 30.3503L0.475092 5.81892C-0.154607 4.58463 0.0457428 3.19606 1.04754 2.09892C2.02071 1.00178 3.65223 0.350342 5.3696 0.350342H559.849C561.537 0.350342 563.112 0.967483 564.085 1.99605C565.058 3.04177 565.344 4.37892 564.829 5.59607L546.253 30.3332L564.571 54.5218C564.915 55.0532 565.115 55.6703 565.115 56.3046C565.115 58.5503 562.768 60.3503 559.877 60.3503Z" fill="#E84142"/>
<path d="M564.571 54.5373L546.253 30.3418L564.829 5.59755C565.344 4.38006 565.058 3.04254 564.085 1.99653C563.083 0.950512 561.509 0.350342 559.849 0.350342H510.074C473.437 19.5044 358.889 52.3423 5.22647 49.2215L0.475092 54.8802C-0.154607 56.1148 0.0457428 57.5038 1.04754 58.6013C2.02071 59.6987 3.65223 60.3503 5.3696 60.3503H559.849H559.877C562.768 60.3503 565.115 58.5498 565.115 56.3378C565.115 55.6861 564.915 55.0688 564.571 54.5373Z" fill="#DA3233"/>
</svg>
