<svg width="40" height="51" viewBox="0 0 40 51" fill="none" xmlns="http://www.w3.org/2000/svg">
<path d="M20 40.304C31.0457 40.304 40 31.3476 40 20.2994C40 9.25125 31.0457 0.294922 20 0.294922C8.95432 0.294922 0 9.25125 0 20.2994C0 31.3476 8.95432 40.304 20 40.304Z" fill="url(#paint0_linear_5005_6839)"/>
<path d="M12.5402 50.5723L8.49291 46.9526C8.27134 46.7457 7.97592 46.6275 7.66573 46.598L2.65835 46.1843C2.28907 46.1547 2.0675 45.7706 2.21521 45.4308L9.37918 29.2085L20.5609 34.1431L13.3969 50.3802C13.2492 50.72 12.8061 50.8087 12.5402 50.5723Z" fill="url(#paint1_linear_5005_6839)"/>
<path d="M27.4445 50.5723L31.4918 46.9526C31.7133 46.7457 32.0088 46.6275 32.3189 46.598L37.3263 46.1843C37.6956 46.1547 37.9172 45.7706 37.7695 45.4308L30.6055 29.2085L19.4238 34.1431L26.5878 50.3802C26.7503 50.72 27.1786 50.8087 27.4445 50.5723Z" fill="url(#paint2_linear_5005_6839)"/>
<path d="M20.0003 39.2847C30.4831 39.2847 38.9811 30.7847 38.9811 20.2996C38.9811 9.81438 30.4831 1.31445 20.0003 1.31445C9.51753 1.31445 1.01953 9.81438 1.01953 20.2996C1.01953 30.7847 9.51753 39.2847 20.0003 39.2847Z" fill="url(#paint3_linear_5005_6839)"/>
<path d="M19.9996 34.143C27.6435 34.143 33.8401 27.945 33.8401 20.2994C33.8401 12.6538 27.6435 6.45581 19.9996 6.45581C12.3558 6.45581 6.15918 12.6538 6.15918 20.2994C6.15918 27.945 12.3558 34.143 19.9996 34.143Z" fill="url(#paint4_linear_5005_6839)"/>
<path d="M6.85328 20.9938C6.85328 13.3554 13.0424 7.15021 20.6938 7.15021C24.3422 7.15021 27.6509 8.56854 30.1177 10.8733C27.5918 8.16963 24.0025 6.45581 20.0143 6.45581C12.3777 6.45581 6.17383 12.6463 6.17383 20.2994C6.17383 24.2885 7.87251 27.8787 10.5904 30.4051C8.27132 27.9378 6.85328 24.6283 6.85328 20.9938Z" fill="white"/>
<path d="M19.9995 6.45581C19.8814 6.45581 19.7632 6.47058 19.645 6.47058C26.7351 6.66264 32.4367 12.4542 32.4367 19.5902C32.4367 26.8445 26.5579 32.7247 19.3053 32.7247C12.1709 32.7247 6.36584 27.0218 6.18859 19.9301C6.18859 20.0482 6.17383 20.1665 6.17383 20.2846C6.17383 27.923 12.3629 34.1135 20.0143 34.1135C27.6509 34.1135 33.8548 27.923 33.8548 20.2846C33.8252 12.6611 27.6362 6.45581 19.9995 6.45581Z" fill="#9B9B9B"/>
<path d="M15.3609 24.7558C16.5158 23.8509 17.4624 23.071 18.2006 22.4161C18.9388 21.7613 19.558 21.0885 20.058 20.398C20.5581 19.6955 20.8082 19.0287 20.8082 18.3976C20.8082 18.0166 20.7189 17.719 20.5403 17.5046C20.3736 17.2903 20.1235 17.1832 19.7901 17.1832C19.4449 17.1832 19.177 17.332 18.9864 17.6297C18.7959 17.9154 18.7066 18.3381 18.7185 18.8977H15.3251C15.3609 17.838 15.593 16.9629 16.0217 16.2723C16.4503 15.5698 17.0099 15.0578 17.7005 14.7363C18.3911 14.4029 19.1591 14.2363 20.0045 14.2363C21.469 14.2363 22.5584 14.5994 23.2728 15.3257C23.9872 16.052 24.3444 16.9926 24.3444 18.1476C24.3444 19.3859 23.9277 20.5468 23.0942 21.6303C22.2727 22.7138 21.2428 23.6842 20.0045 24.5415H24.4695V27.3812H15.3609V24.7558Z" fill="#565656"/>
<defs>
<linearGradient id="paint0_linear_5005_6839" x1="-0.00620384" y1="20.2992" x2="39.9929" y2="20.2992" gradientUnits="userSpaceOnUse">
<stop stop-color="#D5D5D5"/>
<stop offset="0.1216" stop-color="#D7D7D7"/>
<stop offset="0.3086" stop-color="#CECECE"/>
<stop offset="0.6922" stop-color="#9B9B9B"/>
<stop offset="1" stop-color="white"/>
</linearGradient>
<linearGradient id="paint1_linear_5005_6839" x1="8.68775" y1="45.3085" x2="12.0324" y2="38.4732" gradientUnits="userSpaceOnUse">
<stop stop-color="#D60909"/>
<stop offset="1" stop-color="#A00505"/>
</linearGradient>
<linearGradient id="paint2_linear_5005_6839" x1="30.8102" y1="45.2104" x2="27.7606" y2="37.7356" gradientUnits="userSpaceOnUse">
<stop stop-color="#D60909"/>
<stop offset="1" stop-color="#A00505"/>
</linearGradient>
<linearGradient id="paint3_linear_5005_6839" x1="1.0148" y1="20.2993" x2="38.9727" y2="20.2993" gradientUnits="userSpaceOnUse">
<stop stop-color="#D5D5D5"/>
<stop offset="0.1216" stop-color="#D7D7D7"/>
<stop offset="0.3086" stop-color="#CECECE"/>
<stop offset="0.6922" stop-color="#9B9B9B"/>
<stop offset="1" stop-color="white"/>
</linearGradient>
<linearGradient id="paint4_linear_5005_6839" x1="28.0336" y1="28.3416" x2="11.109" y2="11.4207" gradientUnits="userSpaceOnUse">
<stop stop-color="white"/>
<stop offset="0.3078" stop-color="#9B9B9B"/>
<stop offset="0.6914" stop-color="#CECECE"/>
<stop offset="0.8784" stop-color="#D7D7D7"/>
<stop offset="1" stop-color="#D5D5D5"/>
</linearGradient>
</defs>
</svg>
