<svg width="40" height="51" viewBox="0 0 40 51" fill="none" xmlns="http://www.w3.org/2000/svg">
<path d="M20 40.2974C31.0457 40.2974 40 31.3431 40 20.2974C40 9.25168 31.0457 0.297363 20 0.297363C8.95432 0.297363 0 9.25168 0 20.2974C0 31.3431 8.95432 40.2974 20 40.2974Z" fill="url(#paint0_linear_5005_6816)"/>
<path d="M12.5402 50.5633L8.49291 46.9444C8.27134 46.7376 7.97592 46.6194 7.66573 46.5899L2.65835 46.1763C2.28907 46.1467 2.0675 45.7627 2.21521 45.423L9.37918 29.2043L20.5609 34.1379L13.3969 50.3713C13.2492 50.711 12.8061 50.8144 12.5402 50.5633Z" fill="url(#paint1_linear_5005_6816)"/>
<path d="M27.4445 50.5633L31.4918 46.9444C31.7133 46.7376 32.0088 46.6194 32.3189 46.5899L37.3263 46.1763C37.6956 46.1467 37.9172 45.7627 37.7695 45.423L30.6055 29.2043L19.4238 34.1379L26.5878 50.3713C26.7503 50.711 27.1786 50.8144 27.4445 50.5633Z" fill="url(#paint2_linear_5005_6816)"/>
<path d="M20.0003 39.2782C30.4831 39.2782 38.9811 30.7803 38.9811 20.2975C38.9811 9.81465 30.4831 1.31665 20.0003 1.31665C9.51753 1.31665 1.01953 9.81465 1.01953 20.2975C1.01953 30.7803 9.51753 39.2782 20.0003 39.2782Z" fill="url(#paint3_linear_5005_6816)"/>
<path d="M19.9996 34.138C27.6435 34.138 33.8401 27.9414 33.8401 20.2975C33.8401 12.6536 27.6435 6.45703 19.9996 6.45703C12.3558 6.45703 6.15918 12.6536 6.15918 20.2975C6.15918 27.9414 12.3558 34.138 19.9996 34.138Z" fill="url(#paint4_linear_5005_6816)"/>
<path d="M6.85328 20.9917C6.85328 13.3551 13.0424 7.15125 20.6938 7.15125C24.3422 7.15125 27.6509 8.56928 30.1177 10.8736C27.5918 8.17046 24.0025 6.45703 20.0143 6.45703C12.3777 6.45703 6.17383 12.6461 6.17383 20.2975C6.17383 24.2857 7.87251 27.875 10.5904 30.4009C8.27133 27.9341 6.85328 24.6402 6.85328 20.9917Z" fill="white"/>
<path opacity="0.54" d="M19.9995 6.47168C19.8814 6.47168 19.7632 6.48644 19.645 6.48644C26.7351 6.67847 32.4368 12.4687 32.4368 19.6031C32.4368 26.8557 26.5579 32.7346 19.3053 32.7346C12.1709 32.7346 6.36584 27.033 6.18859 19.9429C6.18859 20.061 6.17383 20.1792 6.17383 20.2974C6.17383 27.934 12.3629 34.1231 20.0143 34.1231C27.6509 34.1231 33.8548 27.934 33.8548 20.2974C33.8252 12.6607 27.6362 6.47168 19.9995 6.47168Z" fill="#AF3004"/>
<path d="M16.8801 17.8531V14.5663H22.3819V27.624H18.72V17.8531H16.8801Z" fill="#AF3004"/>
<defs>
<linearGradient id="paint0_linear_5005_6816" x1="-0.00620384" y1="20.3019" x2="39.9929" y2="20.3019" gradientUnits="userSpaceOnUse">
<stop stop-color="#F7AA00"/>
<stop offset="0.2734" stop-color="#ED9700"/>
<stop offset="0.6485" stop-color="#F9DB00"/>
<stop offset="1" stop-color="#F7AA00"/>
</linearGradient>
<linearGradient id="paint1_linear_5005_6816" x1="8.68775" y1="45.3055" x2="12.0312" y2="38.4713" gradientUnits="userSpaceOnUse">
<stop stop-color="#D60909"/>
<stop offset="1" stop-color="#A00505"/>
</linearGradient>
<linearGradient id="paint2_linear_5005_6816" x1="30.8102" y1="45.2075" x2="27.7618" y2="37.7339" gradientUnits="userSpaceOnUse">
<stop stop-color="#D60909"/>
<stop offset="1" stop-color="#A00505"/>
</linearGradient>
<linearGradient id="paint3_linear_5005_6816" x1="1.0148" y1="20.302" x2="38.9727" y2="20.302" gradientUnits="userSpaceOnUse">
<stop stop-color="#F7AA00"/>
<stop offset="0.3515" stop-color="#F9DB00"/>
<stop offset="0.7266" stop-color="#ED9700"/>
<stop offset="1" stop-color="#F7AA00"/>
</linearGradient>
<linearGradient id="paint4_linear_5005_6816" x1="28.0336" y1="28.3427" x2="11.1128" y2="11.4219" gradientUnits="userSpaceOnUse">
<stop stop-color="#F7AA00"/>
<stop offset="0.3515" stop-color="#F9DB00"/>
<stop offset="0.7266" stop-color="#ED9700"/>
<stop offset="1" stop-color="#F7AA00"/>
</linearGradient>
</defs>
</svg>
