<svg width="40" height="51" viewBox="0 0 40 51" fill="none" xmlns="http://www.w3.org/2000/svg">
<path d="M20 40.3067C31.0457 40.3067 40 31.3498 40 20.3008C40 9.25188 31.0457 0.294922 20 0.294922C8.95432 0.294922 0 9.25188 0 20.3008C0 31.3498 8.95432 40.3067 20 40.3067Z" fill="url(#paint0_linear_5005_6862)"/>
<path d="M12.5412 50.5609L8.49389 46.9557C8.27232 46.7488 7.9769 46.6306 7.66671 46.6011L2.65932 46.1874C2.29005 46.1578 2.06848 45.7737 2.21619 45.4338L9.38016 29.2104L20.5619 34.1454L13.3979 50.3836C13.2502 50.7234 12.807 50.8121 12.5412 50.5609Z" fill="url(#paint1_linear_5005_6862)"/>
<path d="M27.4455 50.5609L31.4927 46.9557C31.7143 46.7488 32.0097 46.6306 32.3199 46.6011L37.3273 46.1874C37.6966 46.1578 37.9182 45.7737 37.7704 45.4338L30.6065 29.2104L19.4248 34.1454L26.5887 50.3836C26.7512 50.7234 27.1796 50.8121 27.4455 50.5609Z" fill="url(#paint2_linear_5005_6862)"/>
<path d="M20.0003 39.2872C30.4831 39.2872 38.9811 30.7868 38.9811 20.3009C38.9811 9.81496 30.4831 1.31445 20.0003 1.31445C9.51753 1.31445 1.01953 9.81496 1.01953 20.3009C1.01953 30.7868 9.51753 39.2872 20.0003 39.2872Z" fill="url(#paint3_linear_5005_6862)"/>
<path d="M19.9996 34.1454C27.6435 34.1454 33.8401 27.947 33.8401 20.3009C33.8401 12.6548 27.6435 6.4563 19.9996 6.4563C12.3558 6.4563 6.15918 12.6548 6.15918 20.3009C6.15918 27.947 12.3558 34.1454 19.9996 34.1454Z" fill="url(#paint4_linear_5005_6862)"/>
<path d="M6.85328 20.9806C6.85328 13.3418 13.0424 7.1361 20.6938 7.1361C24.3422 7.1361 27.6509 8.55452 30.1177 10.8595C27.5918 8.15558 24.0025 6.44165 20.0143 6.44165C12.3777 6.44165 6.17383 12.6325 6.17383 20.2862C6.17383 24.2756 7.87251 27.866 10.5904 30.3926C8.27132 27.9399 6.85328 24.6302 6.85328 20.9806Z" fill="white"/>
<path opacity="0.54" d="M19.9995 6.4563C19.8814 6.4563 19.7632 6.47109 19.645 6.47109C26.7351 6.66317 32.4367 12.4551 32.4367 19.5917C32.4367 26.8464 26.5579 32.727 19.3053 32.727C12.1709 32.727 6.36584 27.0237 6.18859 19.9315C6.18859 20.0497 6.17383 20.1679 6.17383 20.2861C6.17383 27.925 12.3629 34.1307 20.0143 34.1307C27.6509 34.1307 33.8548 27.9398 33.8548 20.2861C33.8252 12.6472 27.6362 6.4563 19.9995 6.4563Z" fill="#591706"/>
<path d="M15.0174 17.6874C15.0651 16.342 15.4818 15.312 16.2676 14.5976C17.0535 13.8713 18.1489 13.5082 19.5539 13.5082C20.4707 13.5082 21.2506 13.6689 21.8935 13.9904C22.5484 14.3 23.0425 14.7286 23.3759 15.2763C23.7093 15.8121 23.876 16.4194 23.876 17.098C23.876 17.9077 23.6795 18.5566 23.2866 19.0448C22.8937 19.5211 22.4472 19.8425 21.9471 20.0092V20.0807C23.3878 20.6165 24.1082 21.6404 24.1082 23.1526C24.1082 23.9027 23.9355 24.5635 23.5902 25.135C23.2449 25.7066 22.7449 26.1531 22.09 26.4745C21.4351 26.796 20.6552 26.9568 19.7503 26.9568C18.262 26.9568 17.0832 26.5996 16.2141 25.8852C15.3568 25.1589 14.9103 24.0515 14.8746 22.5632H18.2858C18.262 23.0395 18.3632 23.4086 18.5894 23.6705C18.8157 23.9325 19.155 24.0634 19.6075 24.0634C19.9528 24.0634 20.2207 23.9563 20.4112 23.742C20.6136 23.5276 20.7148 23.2419 20.7148 22.8847C20.7148 22.4322 20.5659 22.0988 20.2683 21.8845C19.9825 21.6702 19.5122 21.563 18.8573 21.563H18.2322V18.7233H18.8395C19.2919 18.7352 19.6729 18.6638 19.9825 18.509C20.304 18.3423 20.4647 18.0149 20.4647 17.5267C20.4647 17.1576 20.3754 16.8837 20.1968 16.7051C20.0182 16.5146 19.7742 16.4194 19.4646 16.4194C19.1193 16.4194 18.8633 16.5444 18.6966 16.7944C18.5418 17.0326 18.4525 17.3302 18.4287 17.6874H15.0174Z" fill="#591706"/>
<defs>
<linearGradient id="paint0_linear_5005_6862" x1="3.20665" y1="3.50384" x2="33.9197" y2="34.2078" gradientUnits="userSpaceOnUse">
<stop stop-color="#BF4500"/>
<stop offset="0.3515" stop-color="#E96800"/>
<stop offset="0.7266" stop-color="#7F2E00"/>
<stop offset="1" stop-color="#BF4500"/>
</linearGradient>
<linearGradient id="paint1_linear_5005_6862" x1="8.68872" y1="45.3065" x2="12.0337" y2="38.4708" gradientUnits="userSpaceOnUse">
<stop stop-color="#D60909"/>
<stop offset="1" stop-color="#A00505"/>
</linearGradient>
<linearGradient id="paint2_linear_5005_6862" x1="30.8112" y1="45.2084" x2="27.7612" y2="37.7332" gradientUnits="userSpaceOnUse">
<stop stop-color="#D60909"/>
<stop offset="1" stop-color="#A00505"/>
</linearGradient>
<linearGradient id="paint3_linear_5005_6862" x1="37.4083" y1="37.7153" x2="5.98029" y2="6.29667" gradientUnits="userSpaceOnUse">
<stop stop-color="#BF4500"/>
<stop offset="0.3515" stop-color="#E96800"/>
<stop offset="0.7266" stop-color="#7F2E00"/>
<stop offset="1" stop-color="#BF4500"/>
</linearGradient>
<linearGradient id="paint4_linear_5005_6862" x1="32.0404" y1="32.3465" x2="2.27487" y2="2.58983" gradientUnits="userSpaceOnUse">
<stop stop-color="#BF4500"/>
<stop offset="0.3515" stop-color="#E96800"/>
<stop offset="0.7266" stop-color="#7F2E00"/>
<stop offset="1" stop-color="#BF4500"/>
</linearGradient>
</defs>
</svg>
